<svg xmlns="http://www.w3.org/2000/svg" viewBox="0 0 543.358 189.112"><defs><style>.cls-1{fill:#fff;}</style></defs><g><g ><path class="cls-1" d="M271.969,32.01h-.1a3.323,3.323,0,0,0,.081,6.646h.023a42.1,42.1,0,0,1,12.791,1.8,32.57,32.57,0,0,1,11.25,5.841l.063.053a2.882,2.882,0,0,0,3.753-4.373,38.392,38.392,0,0,0-13.147-7.422A48.547,48.547,0,0,0,271.969,32.01Z"/><path class="cls-1" d="M212.217,112.9A3.289,3.289,0,0,0,213.7,119.3c9.37-2.169,20.112.054,26.122,5.4a3.289,3.289,0,0,0,4.37-4.917C235.386,111.956,221.789,110.685,212.217,112.9Z"/><path class="cls-1" d="M246.76,58.847a28.82,28.82,0,0,0-11.436,3.512l-.033.018a3.287,3.287,0,1,0,3.236,5.722,22.274,22.274,0,0,1,8.836-2.834,26.755,26.755,0,0,1,9.461.856A41.518,41.518,0,0,1,266,69.888c1.472.812,2.918,1.692,4.325,2.642l2.314,1.534c.828.485,1.633,1,2.494,1.439A35.2,35.2,0,0,0,317.915,68.9a2.767,2.767,0,0,0-4.027-3.8l-.033.036a29.409,29.409,0,0,1-35.83,5.04c-.729-.375-1.416-.839-2.123-1.259l-2.126-1.45q-2.3-1.6-4.767-2.989a47.712,47.712,0,0,0-10.526-4.454A33.128,33.128,0,0,0,246.76,58.847Z"/><path class="cls-1" d="M332.4,175.093l-.016.011a16.255,16.255,0,0,1-8.318,2.638,28.87,28.87,0,0,1-9.335-1.117,43.482,43.482,0,0,1-9-3.691c-.72-.393-1.437-.795-2.142-1.22s-1.544-.932-2.33-1.362a52.517,52.517,0,0,0-4.941-2.449,42.472,42.472,0,0,0-21.973-3.6,32.774,32.774,0,0,0-11.023,3.379,33.949,33.949,0,0,0-9.173,6.985l-.067.073a3.471,3.471,0,0,0,5.173,4.629,26.136,26.136,0,0,1,15.949-8.548,36.139,36.139,0,0,1,18.691,2.8,46.316,46.316,0,0,1,4.422,2.1c.743.392,1.387.775,2.186,1.229s1.589.9,2.4,1.328a49.517,49.517,0,0,0,10.285,4.061,34.641,34.641,0,0,0,11.269,1.18,21.9,21.9,0,0,0,11.212-3.8,2.828,2.828,0,0,0-3.268-4.617Z"/><path class="cls-1" d="M272.656,14.61a26.12,26.12,0,0,1,13.652-1.737c4.594.677,9.011,2.764,13.42,5.36l3.417,2.013a29.528,29.528,0,0,0,3.922,1.9,27.974,27.974,0,0,0,8.506,1.922,23.6,23.6,0,0,0,8.788-1.039,16.859,16.859,0,0,0,7.746-5.012,2.614,2.614,0,0,0-3.944-3.43l-.025.028a11.592,11.592,0,0,1-5.4,3.252,18.118,18.118,0,0,1-6.758.622,22.288,22.288,0,0,1-6.735-1.692,23.6,23.6,0,0,1-3.111-1.6l-3.287-2.1c-4.49-2.871-9.61-5.64-15.409-6.729a33.053,33.053,0,0,0-17.266,1.489l-.043.015-.1.038a3.6,3.6,0,1,0,2.626,6.7Z"/><path class="cls-1" d="M327.876,51.469a3.023,3.023,0,0,0,3.746,4.746,92.957,92.957,0,0,0,10.541-9.376,111.878,111.878,0,0,0,9.112-10.694Q354.246,32.182,356.9,28a108.751,108.751,0,0,0,.585,11.337,78.325,78.325,0,0,0,2.94,14.656,54.883,54.883,0,0,0,2.714,7.1c.5,1.17,1.145,2.289,1.732,3.426.675,1.1,1.292,2.227,2.058,3.277.707,1.082,1.525,2.1,2.338,3.11a29.5,29.5,0,0,0,2.79,2.907,28.222,28.222,0,0,0,6.685,4.5,32.17,32.17,0,0,0,15.4,3.026,37.209,37.209,0,0,0,14.978-3.857,27.509,27.509,0,0,0,11.725-10.568,2.861,2.861,0,0,0-4.925-2.914l-.032.053a21.755,21.755,0,0,1-9.407,8.06A31.141,31.141,0,0,1,393.932,75.1a25.83,25.83,0,0,1-12.321-2.622,21.63,21.63,0,0,1-5.066-3.542,22.93,22.93,0,0,1-2.11-2.283c-.66-.857-1.332-1.7-1.911-2.628-4.81-7.3-7.041-16.331-7.892-25.4a102.936,102.936,0,0,1-.291-13.781q.147-3.457.5-6.9c.235-2.267.542-4.635.927-6.741a3.81,3.81,0,0,0-7.262-2.155l-.025.059h0c-.737,1.882-1.682,3.963-2.63,5.92q-1.44,2.972-3.052,5.873a123.144,123.144,0,0,1-7.046,11.224,105.138,105.138,0,0,1-8.277,10.3,86.706,86.706,0,0,1-9.568,9.02Z"/><path class="cls-1" d="M214.567,17.134a3.072,3.072,0,0,0,4.126-1.362l.066-.131a24.717,24.717,0,0,1,1.457-2.589,28.967,28.967,0,0,1,1.775-2.468c.637-.8,1.312-1.577,2.02-2.321a29.409,29.409,0,0,1,2.14-2.05l.055-.047c.056-.047.111-.1.165-.149A3.5,3.5,0,0,0,221.5.985a35.661,35.661,0,0,0-2.564,2.774q-1.176,1.4-2.226,2.911a35.236,35.236,0,0,0-1.964,3.135,30.888,30.888,0,0,0-1.632,3.4A3.081,3.081,0,0,0,214.567,17.134Z"/><path class="cls-1" d="M174.753,37.88a2.9,2.9,0,0,0,3.5-2.134l.012-.049a46.851,46.851,0,0,1,2.331-6.871,74.016,74.016,0,0,1,3.22-6.7c1.184-2.181,2.462-4.311,3.835-6.336a42.289,42.289,0,0,1,4.394-5.557l.029-.03c.055-.057.109-.117.161-.178a3.878,3.878,0,1,0-5.916-5.016,49.572,49.572,0,0,0-4.811,6.9c-1.384,2.349-2.622,4.744-3.754,7.185a80.639,80.639,0,0,0-3.035,7.489,52.345,52.345,0,0,0-2.141,7.965A2.91,2.91,0,0,0,174.753,37.88Z"/><path class="cls-1" d="M443.164,137.825a2.9,2.9,0,0,0,3.573,2.017,36.709,36.709,0,0,0,10.083-4.609,46.758,46.758,0,0,0,8.4-7.033,57.791,57.791,0,0,0,11.673-18.29c.021-.054.047-.122.066-.178a3.877,3.877,0,1,0-7.331-2.524l-.009.027a50.625,50.625,0,0,1-9.407,16.4,34.978,34.978,0,0,1-15.148,10.652l-.022.007A2.9,2.9,0,0,0,443.164,137.825Z"/><path class="cls-1" d="M122.8,110.24q.341.026.678.025a8.828,8.828,0,0,0,5.832-2.19,8.963,8.963,0,0,0,3.073-6.242,9.136,9.136,0,0,0-8.374-9.69,8.834,8.834,0,0,0-6.51,2.164,8.965,8.965,0,0,0-3.073,6.242A9.14,9.14,0,0,0,122.8,110.24ZM120.92,98.232a3.67,3.67,0,0,1,2.422-.908c.094,0,.189,0,.283.01a3.914,3.914,0,0,1,3.566,4.169,3.8,3.8,0,0,1-1.3,2.647,3.624,3.624,0,0,1-2.7.9,3.915,3.915,0,0,1-3.567-4.168A3.805,3.805,0,0,1,120.92,98.232Z"/><path class="cls-1" d="M381.509,27.248a3.418,3.418,0,0,0,4.368-2.078,46.468,46.468,0,0,1,6.01-10.716,3.423,3.423,0,0,0-5.5-4.083,52.4,52.4,0,0,0-6.967,12.516A3.419,3.419,0,0,0,381.509,27.248Z"/><path class="cls-1" d="M394.512,31.443a3.418,3.418,0,0,0,4.368-2.078,46.468,46.468,0,0,1,6.01-10.716,3.423,3.423,0,0,0-5.5-4.083,52.464,52.464,0,0,0-6.968,12.516A3.42,3.42,0,0,0,394.512,31.443Z"/><path class="cls-1" d="M528.631,136.85a3.423,3.423,0,0,0-4.787.714,52.456,52.456,0,0,0-6.945,12.528,3.42,3.42,0,0,0,2.093,4.357,3.374,3.374,0,0,0,1.136.2,3.429,3.429,0,0,0,3.229-2.281,46.448,46.448,0,0,1,5.988-10.727A3.422,3.422,0,0,0,528.631,136.85Z"/><path class="cls-1" d="M541.971,141.022a3.42,3.42,0,0,0-4.787.715,52.477,52.477,0,0,0-6.944,12.527,3.419,3.419,0,0,0,2.092,4.357,3.376,3.376,0,0,0,1.137.2,3.429,3.429,0,0,0,3.228-2.281,46.471,46.471,0,0,1,5.989-10.728A3.421,3.421,0,0,0,541.971,141.022Z"/><path class="cls-1" d="M184.38,132.689a38.953,38.953,0,0,1,13.562-8.26l.075-.027a4.174,4.174,0,0,0-2.928-7.818l-.022.008a45.516,45.516,0,0,0-7.826,3.856,3.06,3.06,0,0,0-.388.2l-.064.041c-3.9,2.481-8.949,3.933-13.972,4.87a87.072,87.072,0,0,1-15.5,1.353,85.406,85.406,0,0,1-15.5-1.333,49.985,49.985,0,0,1-7.363-1.923,24.073,24.073,0,0,1-6.339-3.224l-.074-.055a2.892,2.892,0,0,0-3.488,4.613,29.609,29.609,0,0,0,7.928,4.176,55.914,55.914,0,0,0,8.217,2.227,91.341,91.341,0,0,0,16.6,1.575,93.232,93.232,0,0,0,16.617-1.314c.238-.042.475-.092.713-.136-2.665,3.169-4.994,6.5-7.232,9.769-3.343,4.925-6.5,9.788-9.956,14.365-1.728,2.285-3.517,4.508-5.392,6.647-.459.558-.929,1.061-1.4,1.545s-.929,1-1.425,1.47c-1,.923-1.989,1.868-3.072,2.695a41.492,41.492,0,0,1-14.411,7.512,43.851,43.851,0,0,1-16.312,1.53,40.329,40.329,0,0,1-15.651-4.668c-4.722-2.607-8.808-6.463-10.611-11.184l-.019-.051a2.623,2.623,0,0,0-4.921,1.816,24.209,24.209,0,0,0,5.218,8.38,33.328,33.328,0,0,0,7.539,5.931,46.087,46.087,0,0,0,17.814,5.764,50.019,50.019,0,0,0,18.664-1.345,48.111,48.111,0,0,0,16.878-8.332c1.276-.937,2.446-2,3.627-3.045.586-.53,1.122-1.108,1.685-1.66s1.111-1.12,1.6-1.687c2.055-2.243,4.008-4.564,5.882-6.933,3.741-4.739,7.105-9.684,10.477-14.42S180.381,136.331,184.38,132.689Z"/><path class="cls-1" d="M145.043,65.015a35.039,35.039,0,0,0,7.5,6.2,46.931,46.931,0,0,0,17.993,6.377,50.955,50.955,0,0,0,19.08-.874,49.685,49.685,0,0,0,17.457-8.006,51.1,51.1,0,0,0,7.266-6.34,93.242,93.242,0,0,0,6.1-7.174,153.99,153.99,0,0,0,10.077-15.481,50.034,50.034,0,0,1,10.543-13.132,61.605,61.605,0,0,1,14.511-8.78l.04-.018.03-.014a3.9,3.9,0,1,0-3.321-7.063,77.812,77.812,0,0,0-11.957,6.824,45.537,45.537,0,0,1-8.672,2.746,69.568,69.568,0,0,1-12.57,1.451,74.942,74.942,0,0,1-12.68-.686,42.013,42.013,0,0,1-11.853-3.283l-.095-.045a2.612,2.612,0,0,0-2.276,4.7,46.916,46.916,0,0,0,13.4,3.993,80.536,80.536,0,0,0,13.622.95,77.637,77.637,0,0,0,11.59-1.017c-.469.568-.927,1.143-1.365,1.729a79.558,79.558,0,0,0-5.152,7.953,147.882,147.882,0,0,1-9.367,15.042,86.407,86.407,0,0,1-5.5,6.721,47.015,47.015,0,0,1-6.238,5.684,43.4,43.4,0,0,1-15.083,7.356A45.127,45.127,0,0,1,171.276,72a41.8,41.8,0,0,1-16.042-5.234c-4.833-2.8-9.034-6.859-10.974-11.849l-.009-.022a2.333,2.333,0,0,0-4.372,1.63A25.628,25.628,0,0,0,145.043,65.015Z"/><path class="cls-1" d="M269.815,130.893a36.995,36.995,0,0,1,12.826-7.909l.079-.029a4.2,4.2,0,1,0-3-7.845l-.04.015a45.3,45.3,0,0,0-15.414,9.973,82.68,82.68,0,0,0-10.917,13.853c-3.135,4.77-6.035,9.5-9.171,14-1.565,2.249-3.18,4.442-4.874,6.561-.853,1.053-1.716,2.1-2.6,3.115-.9.99-1.765,1.971-2.706,2.892a42.542,42.542,0,0,1-12.707,8.907,32.814,32.814,0,0,1-14.944,2.941,29.47,29.47,0,0,1-14.441-4.436,23.846,23.846,0,0,1-9.539-11.314l-.01-.028a2.689,2.689,0,0,0-5.038,1.881,29.406,29.406,0,0,0,11.441,14.283A35.411,35.411,0,0,0,206,183.5a39.135,39.135,0,0,0,17.861-3.082,49.23,49.23,0,0,0,14.942-9.95c8.523-8.254,14.643-18.122,20.885-27.236A75.213,75.213,0,0,1,269.815,130.893Z"/><path class="cls-1" d="M366.621,111.373a3.289,3.289,0,1,0,1.755,6.34c11.908-3.3,22.175,2.406,28.69,7.772a3.289,3.289,0,0,0,4.182-5.077C394.928,115.2,382.022,107.106,366.621,111.373Z"/><path class="cls-1" d="M442.36,120.291l.066-.035a4.2,4.2,0,0,0-3.977-7.4,51.71,51.71,0,0,0-14.291,11.314,75.106,75.106,0,0,0-9.891,14.746c-2.719,5.1-5.073,10.2-7.668,15.014a68.249,68.249,0,0,1-8.924,13.28c-.842,1.019-1.791,1.919-2.7,2.87-.967.874-1.9,1.8-2.928,2.588a36.56,36.56,0,0,1-6.43,4.281A30.672,30.672,0,0,1,371,180.576a27.2,27.2,0,0,1-14.294-4.253,23.5,23.5,0,0,1-9.33-11.362l-.013-.035a2.888,2.888,0,0,0-5.428,1.973,29.435,29.435,0,0,0,11.394,14.526,33.48,33.48,0,0,0,17.507,5.61,37.3,37.3,0,0,0,17.873-4.02,43.461,43.461,0,0,0,7.69-4.889c1.217-.906,2.314-1.935,3.448-2.928,1.061-1.059,2.169-2.082,3.146-3.21a75.2,75.2,0,0,0,10.144-14.456c2.83-5.036,5.286-10.11,7.954-14.887a67.3,67.3,0,0,1,9.075-13.059A43.375,43.375,0,0,1,442.36,120.291Z"/><path class="cls-1" d="M98.759,126.7a43.762,43.762,0,0,1,13.873-8.647l.052-.019a4.062,4.062,0,0,0-2.954-7.568l-.018.008a47.756,47.756,0,0,0-8.186,4.179,46.1,46.1,0,0,1-13.5,3.958,73.527,73.527,0,0,1-14.816.667A62.478,62.478,0,0,1,58.7,116.85a35.9,35.9,0,0,1-12.557-6.417L46.1,110.4l-.014-.012a3.211,3.211,0,1,0-4.059,4.977,42.123,42.123,0,0,0,14.885,7.49A68.565,68.565,0,0,0,72.9,125.383a79.509,79.509,0,0,0,16.048-.886c.361-.06.721-.128,1.082-.192a102.225,102.225,0,0,0-8.707,10.805C74.2,145.023,68.533,155.592,60.4,163.3a51.658,51.658,0,0,1-6.518,5.24A44.094,44.094,0,0,1,46.6,172.46a35.062,35.062,0,0,1-16.035,2.577,31.083,31.083,0,0,1-15.2-5.375A26.582,26.582,0,0,1,5.5,157.2l-.006-.016A2.834,2.834,0,0,0,.157,159.1a32.42,32.42,0,0,0,11.728,15.47,37.284,37.284,0,0,0,18.092,6.807A41.583,41.583,0,0,0,49.083,178.7a50.826,50.826,0,0,0,8.573-4.391,58.6,58.6,0,0,0,7.56-5.835,70.918,70.918,0,0,0,6.492-6.874c1.983-2.411,3.809-4.888,5.565-7.369,3.5-4.966,6.752-9.951,10.211-14.658A83.532,83.532,0,0,1,98.759,126.7Z"/><path class="cls-1" d="M528.187,120.626a4.061,4.061,0,1,0-3.378-7.387l-.01,0a43.356,43.356,0,0,0-8.848,5.486c-12.786,7.4-27.008,4.85-33.019.464a2.892,2.892,0,0,0-3.41,4.672c4.608,3.362,11.344,5.357,18.707,5.357a41.652,41.652,0,0,0,8.149-.817,110.343,110.343,0,0,0-7.805,11.268c-3.165,5.149-6,10.384-8.908,15.462a98.2,98.2,0,0,1-9.394,14.227,40.893,40.893,0,0,1-12.7,10.065,30.959,30.959,0,0,1-15.539,3.259,28.268,28.268,0,0,1-14.885-5.217,26.817,26.817,0,0,1-9.5-12.571,2.8,2.8,0,0,0-5.287,1.839,32.618,32.618,0,0,0,11.246,15.53A34.437,34.437,0,0,0,451.6,189a37.471,37.471,0,0,0,18.859-3.534,47.4,47.4,0,0,0,15.145-11.5,104.3,104.3,0,0,0,10.38-15.148c3.043-5.134,5.921-10.254,9.022-15.13a89.992,89.992,0,0,1,10.209-13.548,40.275,40.275,0,0,1,12.914-9.489Z"/><path class="cls-1" d="M179.321,104.042c-14.684,5.851-31.745,1.037-31.957.975a3.289,3.289,0,0,0-1.843,6.314,66.611,66.611,0,0,0,17.144,2.206,51.811,51.811,0,0,0,19.091-3.383,3.29,3.29,0,0,0-2.435-6.112Z"/><path class="cls-1" d="M351.692,121.589a3.312,3.312,0,0,0-3.307-5.74,17.932,17.932,0,0,1-10.912,2.216,21.517,21.517,0,0,1-5.607-1.41,29.273,29.273,0,0,1-2.741-1.275l-3.024-1.547a40.562,40.562,0,0,0-13.851-4.386,35.386,35.386,0,0,0-14.655,1.585l-.018.006a3.47,3.47,0,0,0,2.142,6.6,28.461,28.461,0,0,1,11.8-1.371,33.721,33.721,0,0,1,11.583,3.646l2.953,1.488a36.6,36.6,0,0,0,3.347,1.527,28.269,28.269,0,0,0,7.369,1.8,24.645,24.645,0,0,0,14.911-3.136Z"/></g></g></svg>